name analog
datacolumns 19
datarows 18
range 0.1855 0.194
endheader
time	ground_force_vx	ground_force_vy	ground_force_vz	ground_force_px	ground_force_py	ground_force_pz	l_ground_force_vx	l_ground_force_vy	l_ground_force_vz	l_ground_force_px	l_ground_force_py	l_ground_force_pz	ground_torque_x	ground_torque_y	ground_torque_z	l_ground_torque_x	l_ground_torque_y	l_ground_torque_z
0.1855	-0.0	-0.0	-0.0	-10.42034912109375	65.51486206054688	-474.9745178222656	-6.340982913970947	-23.4650821685791	-446.4812622070313	-0.0	-0.0	-0.0	-0.0	-0.0	-0.0	127295.8984375	-5691.47265625	-4608.39599609375
0.186	-0.0	-0.0	-0.0	-10.395149230957031	64.17388916015625	-464.5325317382813	-5.411357879638672	-24.73396110534668	-458.1549987792969	-0.0	-0.0	-0.0	-0.0	-0.0	-0.0	129742.296875	-5839.462890625	-4326.90185546875
0.1865	-0.0	-0.0	-0.0	-10.454415321350098	62.756622314453125	-455.4168090820313	-4.680511474609375	-26.075963973999023	-465.7362060546875	-0.0	-0.0	-0.0	-0.0	-0.0	-0.0	132848.65625	-6104.5029296875	-4164.2783203125
0.187	-0.0	-0.0	-0.0	-10.254493713378906	61.24427032470703	-444.8394470214844	-3.147047996520996	-26.76147079467773	-477.4390258789063	-0.0	-0.0	-0.0	-0.0	-0.0	-0.0	135384.5	-5939.10546875	-3739.65380859375
0.1875	-0.0	-0.0	-0.0	-10.422792434692385	59.81638717651367	-432.5620422363281	-2.353135347366333	-27.893295288085938	-487.9949951171875	-0.0	-0.0	-0.0	-0.0	-0.0	-0.0	138029.03125	-6008.68017578125	-3449.787109375
0.188	-0.0	-0.0	-0.0	-10.54783058166504	58.24409866333008	-421.1151428222656	-1.71135675907135	-28.637086868286133	-497.3761291503906	-0.0	-0.0	-0.0	-0.0	-0.0	-0.0	140534.796875	-6209.677734375	-3210.569091796875
0.1885	-0.0	-0.0	-0.0	-9.970627784729004	57.090728759765625	-410.6653442382813	-0.9967308640480042	-29.75936889648437	-505.3670654296875	-0.0	-0.0	-0.0	-0.0	-0.0	-0.0	142388.578125	-6209.35205078125	-2979.971923828125
0.189	-0.0	-0.0	-0.0	-9.875832557678224	55.51300430297852	-396.9966125488281	-0.9026712775230408	-31.32816696166992	-512.4517211914062	-0.0	-0.0	-0.0	-0.0	-0.0	-0.0	144693.8125	-5942.3115234375	-2947.108642578125
0.1895	-0.0	-0.0	-0.0	-10.46438980102539	53.745635986328125	-383.5534057617188	-1.502492070198059	-32.6058235168457	-521.654541015625	-0.0	-0.0	-0.0	-0.0	-0.0	-0.0	146463.671875	-6195.96875	-2870.995361328125
0.19	-0.0	-0.0	-0.0	-10.080787658691406	52.77130126953125	-372.193603515625	-1.5967941284179688	-34.16557312011719	-527.9398193359375	-0.0	-0.0	-0.0	-0.0	-0.0	-0.0	148336.65625	-6110.626953125	-2946.5537109375
0.1905	-0.0	-0.0	-0.0	-10.080787658691406	50.481048583984375	-359.20880126953125	-1.957550883293152	-34.90178680419922	-534.5859985351562	-0.0	-0.0	-0.0	-0.0	-0.0	-0.0	150595.640625	-6142.59326171875	-2842.184326171875
0.191	-0.0	-0.0	-0.0	-10.053558349609377	48.45973587036133	-349.7819519042969	-1.6999157667160034	-36.123573303222656	-544.2218017578125	-0.0	-0.0	-0.0	-0.0	-0.0	-0.0	152786.953125	-6310.06298828125	-2716.708740234375
0.1915	-0.0	-0.0	-0.0	-10.060169219970703	46.77286529541016	-336.2539978027344	-1.5492496490478516	-37.12195587158203	-551.902587890625	-0.0	-0.0	-0.0	-0.0	-0.0	-0.0	155056.796875	-6389.103515625	-2568.52099609375
0.192	-0.0	-0.0	-0.0	-10.582000732421877	45.92268371582031	-323.1061706542969	-1.3306617736816406	-37.44174957275391	-562.402587890625	-0.0	-0.0	-0.0	-0.0	-0.0	-0.0	157727.4375	-6459.46728515625	-2593.4609375
0.1925	-0.0	-0.0	-0.0	-10.25920867919922	44.31827926635742	-311.5858154296875	-1.685504913330078	-37.76095962524414	-570.1102294921875	-0.0	-0.0	-0.0	-0.0	-0.0	-0.0	160579.0625	-6647.07861328125	-2479.74365234375
0.193	-0.0	-0.0	-0.0	-10.190442085266112	42.4743537902832	-300.36480712890625	-1.460191011428833	-37.78136444091797	-581.8193969726562	-0.0	-0.0	-0.0	-0.0	-0.0	-0.0	163889.15625	-6980.5439453125	-2671.20849609375
0.1935	-0.0	-0.0	-0.0	-10.190366744995115	41.74111175537109	-289.385009765625	-1.41937255859375	-37.80168151855469	-593.6087646484375	-0.0	-0.0	-0.0	-0.0	-0.0	-0.0	167001.078125	-7302.2470703125	-2687.174072265625
0.194	-0.0	-0.0	-0.0	-10.060477256774902	40.12101364135742	-281.0019836425781	-0.9834231734275818	-37.21118927001953	-603.8427124023438	-0.0	-0.0	-0.0	-0.0	-0.0	-0.0	170063.125	-7664.501953125	-2584.14208984375
